<svg xmlns="http://www.w3.org/2000/svg" version="1.1" xmlns:xlink="http://www.w3.org/1999/xlink" viewBox="0 350 1422 100" style="overflow: hidden; display: block;" width="1422" height="100"><defs></defs><g id="two-0" transform="matrix(1 0 0 1 0 0)" opacity="1"></g><path d="M 177.28640410900525 407.63891955425777 Q 177.28640410900525 407.63891955425777 187.6784352784938 404.86147000802066 198.07046644798237 402.0840204617836 205.8360494224131 402.158452473043 213.60163239684388 402.2328844843024 224.72917920338557 401.5994543551893 235.85672600992723 400.96602422607623 243.6377462287474 400.7927845520775 251.41876644756758 400.6195448780788 259.7282400719331 400.0037198277467 268.03771369629857 399.3878947774146 276.27692628980526 398.93954514549375 284.516138883312 398.49119551357296 292.65024812957677 398.0405766225117 300.78435737584147 397.5899577314505 310.47878416735614 397.09326440837503 320.17321095887075 396.5965710852996 328.9040921339699 396.36362158984446 337.63497330906915 396.13067209438924 349.25696934079406 396.486020258595 360.878965372519 396.84136842280066 370.428505488395 397.7373461349541 379.978045604271 398.63332384710765 391.50358089696454 399.94645696595796 403.02911618965805 401.25959008480834 415.0697835999489 402.4480076519926 427.1104510102397 403.63642521917683 443.2658728584662 405.41031813398945 459.42129470669266 407.18421104880207 475.05292287524685 408.4702834120394 490.68455104380104 409.7563557752768 507.0675293008371 410.6887582386231 523.4505075578732 411.6211607019694 540.8021061723382 412.2971524878951 558.1537047868031 412.9731442738209 574.2937080810074 413.4632383186169 590.4337113752116 413.9533323634129 602.8122687139692 413.7636035839587 615.1908260527266 413.5738748045044 625.9707864080267 413.1238767368339 636.7507467633268 412.6738786691634 646.5266375681379 412.16492849191775 656.302528372949 411.6559783146721 665.6517071664098 411.1845819462336 675.0008859598705 410.7131855777952 684.8180087183316 410.39221646652027 694.6351314767926 410.07124735524536 704.9757611576835 409.8977503461913 715.3163908385743 409.7242533371372 728.1520840510975 410.1524423480341 740.9877772636206 410.58063135893104 757.1564455666871 411.39969592952434 773.3251138697536 412.2187605001176 787.0144645245334 412.57102292375595 800.7038151793132 412.9232853473943 812.3655109788349 412.70148900436874 824.0272067783566 412.47969266134317 834.1778351469618 412.041344576071 844.3284635155671 411.6029964907989 853.5126433586837 411.1160460680853 862.6968232018003 410.6290956453718 872.9798919130542 411.015455002598 883.262960624308 411.4018143598242 893.2706689646916 411.46010107818967 903.2783773050751 411.51838779655515 913.4891204224618 411.79600180790806 923.6998635398487 412.07361581926097 934.0878104747889 412.1840217485533 944.475757409729 412.29442767784553 953.906069389549 412.44745797470404 963.336381369369 412.60048827156254 972.7206111268821 412.58320722171845 982.1048408843952 412.56592617187437 992.903837497287 412.7416721166345 1003.7028341101789 412.91741806139464 1012.5212205143941 412.68075589849116 1021.3396069186094 412.4440937355876 1029.9541262681967 412.20603899265984 1038.568645617784 411.967984249732 1047.0992288960406 411.75144227263445 1055.629812174297 411.53490029553683 1065.4233251102642 411.555514425391 1075.2168380462315 411.57612855524513 1086.1968479287038 411.83814793398835 1097.1768578111762 412.10016731273157 1108.0118053060132 412.27489449298525 1118.8467528008503 412.44962167323894 1128.6460266981298 412.38446210496556 1138.4453005954097 412.31930253669213 1148.7783508521798 412.36683565049015 1159.1114011089498 412.41436876428816 1168.6975102069823 412.3153302736972 1178.2836193050148 412.2162917831063 1186.4486563044848 412.2364366046945 1194.6136933039547 412.25658142628265 1202.1185381016742 412.0891533638881 1209.6233828993936 411.92172530149355 1220.6043238208777 411.2463985361564 1231.5852647423617 410.57107177081923 1239.4810096516846 409.9487453654326 1247.3767545610076 409.326418960046 1258.5173887941467 408.85137285242286 1269.6580230272857 408.37632674479977 1279.8110821808627 407.93217763932364 1289.9641413344395 407.48802853384757 1299.013341572599 407.07315562220685 1308.0625418107586 406.6582827105662 1317.0830494182583 406.6684235667353 1326.1035570257582 406.6785644229044 1334.1841701118292 406.2123016557608 1342.2647831979004 405.7460388886172 1350.1298856895746 405.93677675800484 1357.9949881812486 406.12751462739243 1365.6021372380171 407.0775759948026 1373.2092862947857 408.02763736221283 1381.9143890216756 410.4217018053391 1390.6194917485652 412.8157662484655 1398.1014709604965 416.30577596914384 1405.583450172428 419.7957856898222 1408.5911353843562 421.6217899396337 1411.5988205962847 423.4477941894451 1411.5988205962847 423.4527941894451 1411.5988205962847 423.4577941894451 1411.5988205962847 423.4627941894451 1411.5988205962847 423.4677941894451 1406.8650803649925 426.2274088572562 1402.1313401337002 428.9870235250673 1394.4571425449763 432.2183234667529 1386.7829449562525 435.4496234084385 1378.5224779081282 437.4243382811221 1370.262010860004 439.39905315380565 1362.062603087637 440.1871166768602 1353.8631953152696 440.97518019991475 1346.2394727656808 441.02737949615175 1338.615750216092 441.0795787923887 1330.872210781968 440.5757141117235 1323.1286713478444 440.07184943105835 1315.595509759225 439.03532690704594 1308.062348170606 437.9988043830336 1299.0128155812997 437.5837535706346 1289.9632829919935 437.16870275823555 1279.808707253163 436.72356873506624 1269.6541315143327 436.27843471189686 1258.503425279531 435.79793577275416 1247.3527190447294 435.3174368336115 1239.4092348718386 434.6649217416113 1231.4657506989479 434.0124066496111 1220.3595138073276 433.1699452871051 1209.2532769157074 432.32748392459916 1201.5427851430356 431.88408542312305 1193.832293370364 431.44068692164694 1186.0576224238766 430.8114895336314 1178.2829514773894 430.1822921456158 1168.6971101809818 430.0831875557965 1159.1112688845742 429.9840829659771 1148.7781189370555 430.0314605521788 1138.4449689895368 430.07883813838055 1128.6455132586184 430.0133126228217 1118.8460575277002 429.94778710726285 1108.0106183858763 430.1216532350802 1097.1751792440525 430.29551936289755 1086.193667892746 430.5555127359082 1075.2121565414393 430.8155061089189 1065.4146389319335 430.83135316646127 1055.617121322428 430.84720022400364 1047.0787859344068 430.61944160617236 1038.5404505463855 430.39168298834113 1029.9094055823962 430.1272361495694 1021.2783606184071 429.8627893107976 1012.4355458918725 429.5640280988496 1003.5927311653379 429.2652668869015 992.6968792421821 429.2948974221451 981.8010273190265 429.3245279573887 972.2216917022 428.96344594397624 962.6423560853735 428.6023639305638 953.4246247671148 427.9464507837321 944.206893448856 427.29053763690035 933.6336061243004 427.0253038629785 923.0603187997448 426.76007008905657 912.9781345119761 426.1538259751997 902.8959502242074 425.54758186134285 892.6554612406496 425.05395903762457 882.414972257092 424.5603362139063 872.5550908943205 423.6480848838766 862.6952095315489 422.73583355384693 853.511836523558 422.2488831311334 844.3284635155671 421.76193270841986 834.1778351469618 421.3235846231477 824.0272067783566 420.8852365378756 812.3655109788349 420.66344019485 800.7038151793132 420.44164385182444 787.0144645245334 420.7939062754628 773.3251138697536 421.14616869910117 757.1564455666871 421.9652332696944 740.9877772636206 422.7842978402877 728.1520840510975 423.2124868511846 715.3163908385743 423.64067586208154 704.9757611576835 423.46717885302746 694.6351314767926 423.2936818439734 684.8180087183316 422.9727127326985 675.0008859598705 422.6517436214236 665.6517071664098 422.18034725298514 656.302528372949 421.70895088454665 646.5266375681379 421.20000070730094 636.7507467633268 420.69105053005524 625.9707864080267 420.2410524623847 615.1908260527266 419.79105439471414 602.8122687139692 419.6013256152597 590.4337113752116 419.41159683580526 574.2937080810073 419.9016908806009 558.1537047868029 420.3917849253965 540.8021061723377 421.06777671132136 523.4505075578725 421.74376849724615 507.06752930083564 422.67617096059024 490.68455104379876 423.60857342393433 475.05292287524213 424.8946457871665 459.4212947066855 426.1807181503987 443.2658728584472 427.95461106519923 427.11045101020886 429.72850397999974 415.0697835998885 430.91692154715554 403.02911618956824 432.1053391143113 391.50358089677053 433.4184722330946 379.9780456039728 434.7316053518778 370.42850548767274 435.62758306387354 360.8789653713727 436.5235607758692 349.2569693333053 436.8789089388299 337.6349732952379 437.23425710179055 328.9040920253668 437.00130758806074 320.1732107554957 436.7683580743309 310.47874927959595 436.2716614120983 300.78428780369615 435.7749647498658 292.6498027616716 435.3242462626283 284.515317719647 434.8735277753908 276.2687322267642 434.4239399367493 268.02214673388136 433.9743520981078 260.52177368954005 433.2104331094432 253.0214006451988 432.4465141207787 243.8538157273195 430.98576572584034 234.6862308094402 429.52501733090196 222.4507033086236 427.49561083400533 210.21517580780701 425.4662043371087 202.1864911850393 423.2356186100259 194.15780656227156 421.005032882943 185.72007927839098 414.33176882254577 177.28235199451038 407.6585047621485 177.2843780517578 407.6487121582031 Z" fill="hsl(205, 69%, 50%)"></path></svg>